<svg xmlns="http://www.w3.org/2000/svg" width="52.153" height="24.65"><defs><style>.a{fill:#f2f2f2;opacity:.996}.b{fill:#5b52ff}</style></defs><path class="a" d="M50.237 6.519a1.785 1.785 0 011.345.562 1.85 1.85 0 01.57 1.361v14.309a1.76 1.76 0 01-.57 1.336 1.785 1.785 0 01-1.345.562 1.89 1.89 0 01-1.369-.562 1.785 1.785 0 01-.57-1.336V8.434a1.931 1.931 0 011.907-1.915z"/><path class="b" d="M22.368 16.998V8.377a1.833 1.833 0 00-.179-.815 3.782 3.782 0 00-.139-.244 2.7 2.7 0 00-.253-.293 1.809 1.809 0 00-.456-.342 1 1 0 00-.253-.114 1.45 1.45 0 00-.269-.049 1.752 1.752 0 00-.367 0h-.2a1.874 1.874 0 00-.853.284 2.127 2.127 0 00-.342.277 2.094 2.094 0 00-.383.522 1.882 1.882 0 00-.187.815v8.581a3.985 3.985 0 010 .44 3.585 3.585 0 01-1.067 2.216 3.854 3.854 0 01-5.378 0 3.651 3.651 0 01-1.092-2.656V8.377a1.934 1.934 0 00-1.913-1.915h-.073a1.931 1.931 0 00-1.915 1.915v8.621a7.334 7.334 0 002.249 5.37 7.407 7.407 0 005.419 2.233 7.334 7.334 0 003.936-1.076 7.831 7.831 0 001.467-1.157 7.252 7.252 0 002.233-4.791v-.579z"/><path class="a" d="M42.846 4.893a7.383 7.383 0 00-5.362-2.22 6.751 6.751 0 00-5.7 2.485 6.831 6.831 0 00-5.7-2.485 7.334 7.334 0 00-3.92 1.059 8.149 8.149 0 00-1.466 1.161c-.106.114-.212.22-.31.334a1.793 1.793 0 00-.163.187l-.13.155a2.2 2.2 0 013.007 2.034 2.135 2.135 0 01-.049.464l.073-.09a2.241 2.241 0 01.179-.212l.155-.171a3.74 3.74 0 016.389 2.632v12.467a1.76 1.76 0 00.57 1.345 1.874 1.874 0 001.361.562 1.948 1.948 0 001.923-1.907v-12.45a3.577 3.577 0 011.092-2.632 3.789 3.789 0 015.3 0 3.585 3.585 0 011.1 2.632v12.45a1.76 1.76 0 00.57 1.345 1.785 1.785 0 001.345.562 1.858 1.858 0 001.361-.562 1.817 1.817 0 00.564-1.345v-12.45a7.334 7.334 0 00-2.189-5.35z"/><path class="b" d="M1.965 0a1.891 1.891 0 011.352.554 1.85 1.85 0 01.57 1.353v20.787a1.793 1.793 0 01-.57 1.345 1.866 1.866 0 01-1.353.562h-.048a1.858 1.858 0 01-1.345-.562 1.76 1.76 0 01-.57-1.345V1.907A1.817 1.817 0 01.571.554 1.882 1.882 0 011.916 0z"/></svg>